<?xml version="1.0" encoding="UTF-8"?>
<svg width="230px" height="100px" viewBox="0 0 230 100" version="1.1" xmlns="http://www.w3.org/2000/svg" xmlns:xlink="http://www.w3.org/1999/xlink">
    <!-- Generator: Sketch 51.3 (57544) - http://www.bohemiancoding.com/sketch -->
    <title>dotted</title>
    <desc>Created with Sketch.</desc>
    <defs></defs>
    <g id="Page-1" stroke="none" stroke-width="1" fill="none" fill-rule="evenodd" fill-opacity="0.539628623" opacity="0.176064312">
        <g id="Home-rev" transform="translate(-2.000000, -1343.000000)" fill="#53627C">
            <g id="dotted" transform="translate(-42.000000, 1393.500000) rotate(90.000000) translate(42.000000, -1393.500000) translate(-92.000000, 1120.000000)">
                <path d="M3.32461557,6.27555916 C5.04908792,6.27555916 6.46001985,4.86831256 6.46001985,3.13777958 C6.46001985,1.40249239 5.04908792,0 3.32461557,0 C1.59539261,0 0.18446069,1.40249239 0.18446069,3.13777958 C0.18446069,4.86831256 1.59539261,6.27555916 3.32461557,6.27555916" id="Fill-1"></path>
                <path d="M21.9130098,6.27555916 C23.648297,6.27555916 25.0555436,4.86831256 25.0555436,3.13777958 C25.0555436,1.40249239 23.648297,0 21.9130098,0 C20.1872311,0 18.7799845,1.40249239 18.7799845,3.13777958 C18.7799845,4.86831256 20.1872311,6.27555916 21.9130098,6.27555916" id="Fill-3"></path>
                <path d="M40.5101939,6.27555916 C42.2407269,6.27555916 43.6479735,4.86831256 43.6479735,3.13777958 C43.6479735,1.40249239 42.2407269,0 40.5101939,0 C38.7796609,0 37.3724143,1.40249239 37.3724143,3.13777958 C37.3724143,4.86831256 38.7796609,6.27555916 40.5101939,6.27555916" id="Fill-5"></path>
                <path d="M59.102905,6.27555916 C60.833438,6.27555916 62.2406846,4.86831256 62.2406846,3.13777958 C62.2406846,1.40249239 60.833438,0 59.102905,0 C57.3771262,0 55.9651254,1.40249239 55.9651254,3.13777958 C55.9651254,4.86831256 57.3771262,6.27555916 59.102905,6.27555916" id="Fill-7"></path>
                <path d="M77.7000891,6.27555916 C79.4258678,6.27555916 80.8331144,4.86831256 80.8331144,3.13777958 C80.8331144,1.40249239 79.4258678,0 77.7000891,0 C75.9695561,0 74.5575553,1.40249239 74.5575553,3.13777958 C74.5575553,4.86831256 75.9695561,6.27555916 77.7000891,6.27555916" id="Fill-9"></path>
                <path d="M96.2905774,6.27555916 C98.0211103,6.27555916 99.4283569,4.86831256 99.4283569,3.13777958 C99.4283569,1.40249239 98.0211103,0 96.2905774,0 C94.5600444,0 93.1527978,1.40249239 93.1527978,3.13777958 C93.1527978,4.86831256 94.5600444,6.27555916 96.2905774,6.27555916" id="Fill-11"></path>
                <path d="M3.32461557,24.8654576 C5.04908792,24.8654576 6.46001985,23.4629652 6.46001985,21.7276781 C6.46001985,19.9971451 5.04908792,18.5898985 3.32461557,18.5898985 C1.59539261,18.5898985 0.18446069,19.9971451 0.18446069,21.7276781 C0.18446069,23.4629652 1.59539261,24.8654576 3.32461557,24.8654576" id="Fill-13"></path>
                <path d="M21.9130098,24.8654576 C23.648297,24.8654576 25.0555436,23.4629652 25.0555436,21.7276781 C25.0555436,19.9971451 23.648297,18.5898985 21.9130098,18.5898985 C20.1872311,18.5898985 18.7799845,19.9971451 18.7799845,21.7276781 C18.7799845,23.4629652 20.1872311,24.8654576 21.9130098,24.8654576" id="Fill-15"></path>
                <path d="M40.5101939,24.8654576 C42.2407269,24.8654576 43.6479735,23.4629652 43.6479735,21.7276781 C43.6479735,19.9971451 42.2407269,18.5898985 40.5101939,18.5898985 C38.7796609,18.5898985 37.3724143,19.9971451 37.3724143,21.7276781 C37.3724143,23.4629652 38.7796609,24.8654576 40.5101939,24.8654576" id="Fill-17"></path>
                <path d="M59.102905,24.8654576 C60.833438,24.8654576 62.2406846,23.4629652 62.2406846,21.7276781 C62.2406846,19.9971451 60.833438,18.5898985 59.102905,18.5898985 C57.3771262,18.5898985 55.9651254,19.9971451 55.9651254,21.7276781 C55.9651254,23.4629652 57.3771262,24.8654576 59.102905,24.8654576" id="Fill-19"></path>
                <path d="M77.7000891,24.8654576 C79.4258678,24.8654576 80.8331144,23.4629652 80.8331144,21.7276781 C80.8331144,19.9971451 79.4258678,18.5898985 77.7000891,18.5898985 C75.9695561,18.5898985 74.5575553,19.9971451 74.5575553,21.7276781 C74.5575553,23.4629652 75.9695561,24.8654576 77.7000891,24.8654576" id="Fill-21"></path>
                <path d="M96.2905774,24.8654576 C98.0211103,24.8654576 99.4283569,23.4629652 99.4283569,21.7276781 C99.4283569,19.9971451 98.0211103,18.5898985 96.2905774,18.5898985 C94.5600444,18.5898985 93.1527978,19.9971451 93.1527978,21.7276781 C93.1527978,23.4629652 94.5600444,24.8654576 96.2905774,24.8654576" id="Fill-23"></path>
                <path d="M3.32461557,43.4607001 C5.04908792,43.4607001 6.46001985,42.0582077 6.46001985,40.3229205 C6.46001985,38.5876334 5.04908792,37.185141 3.32461557,37.185141 C1.59539261,37.185141 0.18446069,38.5876334 0.18446069,40.3229205 C0.18446069,42.0582077 1.59539261,43.4607001 3.32461557,43.4607001" id="Fill-25"></path>
                <path d="M21.9130098,43.4607001 C23.648297,43.4607001 25.0555436,42.0582077 25.0555436,40.3229205 C25.0555436,38.5876334 23.648297,37.185141 21.9130098,37.185141 C20.1872311,37.185141 18.7799845,38.5876334 18.7799845,40.3229205 C18.7799845,42.0582077 20.1872311,43.4607001 21.9130098,43.4607001" id="Fill-27"></path>
                <path d="M40.5101939,43.4607001 C42.2407269,43.4607001 43.6479735,42.0582077 43.6479735,40.3229205 C43.6479735,38.5876334 42.2407269,37.185141 40.5101939,37.185141 C38.7796609,37.185141 37.3724143,38.5876334 37.3724143,40.3229205 C37.3724143,42.0582077 38.7796609,43.4607001 40.5101939,43.4607001" id="Fill-29"></path>
                <path d="M59.102905,43.4607001 C60.833438,43.4607001 62.2406846,42.0582077 62.2406846,40.3229205 C62.2406846,38.5876334 60.833438,37.185141 59.102905,37.185141 C57.3771262,37.185141 55.9651254,38.5876334 55.9651254,40.3229205 C55.9651254,42.0582077 57.3771262,43.4607001 59.102905,43.4607001" id="Fill-31"></path>
                <path d="M77.7000891,43.4607001 C79.4258678,43.4607001 80.8331144,42.0582077 80.8331144,40.3229205 C80.8331144,38.5876334 79.4258678,37.185141 77.7000891,37.185141 C75.9695561,37.185141 74.5575553,38.5876334 74.5575553,40.3229205 C74.5575553,42.0582077 75.9695561,43.4607001 77.7000891,43.4607001" id="Fill-33"></path>
                <path d="M96.2905774,43.4607001 C98.0211103,43.4607001 99.4283569,42.0582077 99.4283569,40.3229205 C99.4283569,38.5876334 98.0211103,37.185141 96.2905774,37.185141 C94.5600444,37.185141 93.1527978,38.5876334 93.1527978,40.3229205 C93.1527978,42.0582077 94.5600444,43.4607001 96.2905774,43.4607001" id="Fill-35"></path>
                <path d="M3.32461557,62.0562239 C5.04908792,62.0562239 6.46001985,60.6479104 6.46001985,58.9160654 C6.46001985,57.1842204 5.04908792,55.7806647 3.32461557,55.7806647 C1.59539261,55.7806647 0.18446069,57.1842204 0.18446069,58.9160654 C0.18446069,60.6479104 1.59539261,62.0562239 3.32461557,62.0562239" id="Fill-37"></path>
                <path d="M21.9130098,62.0562239 C23.648297,62.0562239 25.0555436,60.6479104 25.0555436,58.9160654 C25.0555436,57.1842204 23.648297,55.7806647 21.9130098,55.7806647 C20.1872311,55.7806647 18.7799845,57.1842204 18.7799845,58.9160654 C18.7799845,60.6479104 20.1872311,62.0562239 21.9130098,62.0562239" id="Fill-39"></path>
                <path d="M40.5101939,62.0562239 C42.2407269,62.0562239 43.6479735,60.6479104 43.6479735,58.9160654 C43.6479735,57.1842204 42.2407269,55.7806647 40.5101939,55.7806647 C38.7796609,55.7806647 37.3724143,57.1842204 37.3724143,58.9160654 C37.3724143,60.6479104 38.7796609,62.0562239 40.5101939,62.0562239" id="Fill-41"></path>
                <path d="M59.102905,62.0562239 C60.833438,62.0562239 62.2406846,60.6479104 62.2406846,58.9160654 C62.2406846,57.1842204 60.833438,55.7806647 59.102905,55.7806647 C57.3771262,55.7806647 55.9651254,57.1842204 55.9651254,58.9160654 C55.9651254,60.6479104 57.3771262,62.0562239 59.102905,62.0562239" id="Fill-43"></path>
                <path d="M77.7000891,62.0562239 C79.4258678,62.0562239 80.8331144,60.6479104 80.8331144,58.9160654 C80.8331144,57.1842204 79.4258678,55.7806647 77.7000891,55.7806647 C75.9695561,55.7806647 74.5575553,57.1842204 74.5575553,58.9160654 C74.5575553,60.6479104 75.9695561,62.0562239 77.7000891,62.0562239" id="Fill-45"></path>
                <path d="M96.2905774,62.0562239 C98.0211103,62.0562239 99.4283569,60.6479104 99.4283569,58.9160654 C99.4283569,57.1842204 98.0211103,55.7806647 96.2905774,55.7806647 C94.5600444,55.7806647 93.1527978,57.1842204 93.1527978,58.9160654 C93.1527978,60.6479104 94.5600444,62.0562239 96.2905774,62.0562239" id="Fill-47"></path>
                <path d="M3.32461557,80.6458411 C5.04908792,80.6458411 6.46001985,79.2433487 6.46001985,77.5080615 C6.46001985,75.7775285 5.04908792,74.3702819 3.32461557,74.3702819 C1.59539261,74.3702819 0.18446069,75.7775285 0.18446069,77.5080615 C0.18446069,79.2433487 1.59539261,80.6458411 3.32461557,80.6458411" id="Fill-49"></path>
                <path d="M21.9130098,80.6458411 C23.648297,80.6458411 25.0555436,79.2433487 25.0555436,77.5080615 C25.0555436,75.7775285 23.648297,74.3702819 21.9130098,74.3702819 C20.1872311,74.3702819 18.7799845,75.7775285 18.7799845,77.5080615 C18.7799845,79.2433487 20.1872311,80.6458411 21.9130098,80.6458411" id="Fill-51"></path>
                <path d="M40.5101939,80.6458411 C42.2407269,80.6458411 43.6479735,79.2433487 43.6479735,77.5080615 C43.6479735,75.7775285 42.2407269,74.3702819 40.5101939,74.3702819 C38.7796609,74.3702819 37.3724143,75.7775285 37.3724143,77.5080615 C37.3724143,79.2433487 38.7796609,80.6458411 40.5101939,80.6458411" id="Fill-53"></path>
                <path d="M59.102905,80.6458411 C60.833438,80.6458411 62.2406846,79.2433487 62.2406846,77.5080615 C62.2406846,75.7775285 60.833438,74.3702819 59.102905,74.3702819 C57.3771262,74.3702819 55.9651254,75.7775285 55.9651254,77.5080615 C55.9651254,79.2433487 57.3771262,80.6458411 59.102905,80.6458411" id="Fill-55"></path>
                <path d="M77.7000891,80.6458411 C79.4258678,80.6458411 80.8331144,79.2433487 80.8331144,77.5080615 C80.8331144,75.7775285 79.4258678,74.3702819 77.7000891,74.3702819 C75.9695561,74.3702819 74.5575553,75.7775285 74.5575553,77.5080615 C74.5575553,79.2433487 75.9695561,80.6458411 77.7000891,80.6458411" id="Fill-57"></path>
                <path d="M96.2905774,80.6458411 C98.0211103,80.6458411 99.4283569,79.2433487 99.4283569,77.5080615 C99.4283569,75.7775285 98.0211103,74.3702819 96.2905774,74.3702819 C94.5600444,74.3702819 93.1527978,75.7775285 93.1527978,77.5080615 C93.1527978,79.2433487 94.5600444,80.6458411 96.2905774,80.6458411" id="Fill-59"></path>
                <path d="M3.32461557,99.2410836 C5.04908792,99.2410836 6.46001985,97.8385912 6.46001985,96.103304 C6.46001985,94.3680168 5.04908792,92.9655244 3.32461557,92.9655244 C1.59539261,92.9655244 0.18446069,94.3680168 0.18446069,96.103304 C0.18446069,97.8385912 1.59539261,99.2410836 3.32461557,99.2410836" id="Fill-61"></path>
                <path d="M21.9130098,99.2410836 C23.648297,99.2410836 25.0555436,97.8385912 25.0555436,96.103304 C25.0555436,94.3680168 23.648297,92.9655244 21.9130098,92.9655244 C20.1872311,92.9655244 18.7799845,94.3680168 18.7799845,96.103304 C18.7799845,97.8385912 20.1872311,99.2410836 21.9130098,99.2410836" id="Fill-63"></path>
                <path d="M40.5101939,99.2410836 C42.2407269,99.2410836 43.6479735,97.8385912 43.6479735,96.103304 C43.6479735,94.3680168 42.2407269,92.9655244 40.5101939,92.9655244 C38.7796609,92.9655244 37.3724143,94.3680168 37.3724143,96.103304 C37.3724143,97.8385912 38.7796609,99.2410836 40.5101939,99.2410836" id="Fill-65"></path>
                <path d="M59.102905,99.2410836 C60.833438,99.2410836 62.2406846,97.8385912 62.2406846,96.103304 C62.2406846,94.3680168 60.833438,92.9655244 59.102905,92.9655244 C57.3771262,92.9655244 55.9651254,94.3680168 55.9651254,96.103304 C55.9651254,97.8385912 57.3771262,99.2410836 59.102905,99.2410836" id="Fill-67"></path>
                <path d="M77.7000891,99.2410836 C79.4258678,99.2410836 80.8331144,97.8385912 80.8331144,96.103304 C80.8331144,94.3680168 79.4258678,92.9655244 77.7000891,92.9655244 C75.9695561,92.9655244 74.5575553,94.3680168 74.5575553,96.103304 C74.5575553,97.8385912 75.9695561,99.2410836 77.7000891,99.2410836" id="Fill-69"></path>
                <path d="M96.2905774,99.2410836 C98.0211103,99.2410836 99.4283569,97.8385912 99.4283569,96.103304 C99.4283569,94.3680168 98.0211103,92.9655244 96.2905774,92.9655244 C94.5600444,92.9655244 93.1527978,94.3680168 93.1527978,96.103304 C93.1527978,97.8385912 94.5600444,99.2410836 96.2905774,99.2410836" id="Fill-71"></path>
                <path d="M3.32461557,117.833795 C5.04908792,117.833795 6.46001985,116.426548 6.46001985,114.696015 C6.46001985,112.965482 5.04908792,111.558236 3.32461557,111.558236 C1.59539261,111.558236 0.18446069,112.965482 0.18446069,114.696015 C0.18446069,116.426548 1.59539261,117.833795 3.32461557,117.833795" id="Fill-73"></path>
                <path d="M21.9130098,117.833795 C23.648297,117.833795 25.0555436,116.426548 25.0555436,114.696015 C25.0555436,112.965482 23.648297,111.558236 21.9130098,111.558236 C20.1872311,111.558236 18.7799845,112.965482 18.7799845,114.696015 C18.7799845,116.426548 20.1872311,117.833795 21.9130098,117.833795" id="Fill-75"></path>
                <path d="M40.5101939,117.833795 C42.2407269,117.833795 43.6479735,116.426548 43.6479735,114.696015 C43.6479735,112.965482 42.2407269,111.558236 40.5101939,111.558236 C38.7796609,111.558236 37.3724143,112.965482 37.3724143,114.696015 C37.3724143,116.426548 38.7796609,117.833795 40.5101939,117.833795" id="Fill-77"></path>
                <path d="M59.102905,117.833795 C60.833438,117.833795 62.2406846,116.426548 62.2406846,114.696015 C62.2406846,112.965482 60.833438,111.558236 59.102905,111.558236 C57.3771262,111.558236 55.9651254,112.965482 55.9651254,114.696015 C55.9651254,116.426548 57.3771262,117.833795 59.102905,117.833795" id="Fill-79"></path>
                <path d="M77.7000891,117.833795 C79.4258678,117.833795 80.8331144,116.426548 80.8331144,114.696015 C80.8331144,112.965482 79.4258678,111.558236 77.7000891,111.558236 C75.9695561,111.558236 74.5575553,112.965482 74.5575553,114.696015 C74.5575553,116.426548 75.9695561,117.833795 77.7000891,117.833795" id="Fill-81"></path>
                <path d="M96.2905774,117.833795 C98.0211103,117.833795 99.4283569,116.426548 99.4283569,114.696015 C99.4283569,112.965482 98.0211103,111.558236 96.2905774,111.558236 C94.5600444,111.558236 93.1527978,112.965482 93.1527978,114.696015 C93.1527978,116.426548 94.5600444,117.833795 96.2905774,117.833795" id="Fill-83"></path>
                <path d="M3.32461557,136.426225 C5.04908792,136.426225 6.46001985,135.023732 6.46001985,133.288445 C6.46001985,131.553158 5.04908792,130.150665 3.32461557,130.150665 C1.59539261,130.150665 0.18446069,131.553158 0.18446069,133.288445 C0.18446069,135.023732 1.59539261,136.426225 3.32461557,136.426225" id="Fill-85"></path>
                <path d="M21.9130098,136.426225 C23.648297,136.426225 25.0555436,135.023732 25.0555436,133.288445 C25.0555436,131.553158 23.648297,130.150665 21.9130098,130.150665 C20.1872311,130.150665 18.7799845,131.553158 18.7799845,133.288445 C18.7799845,135.023732 20.1872311,136.426225 21.9130098,136.426225" id="Fill-87"></path>
                <path d="M40.5101939,136.426225 C42.2407269,136.426225 43.6479735,135.023732 43.6479735,133.288445 C43.6479735,131.553158 42.2407269,130.150665 40.5101939,130.150665 C38.7796609,130.150665 37.3724143,131.553158 37.3724143,133.288445 C37.3724143,135.023732 38.7796609,136.426225 40.5101939,136.426225" id="Fill-89"></path>
                <path d="M59.102905,136.426225 C60.833438,136.426225 62.2406846,135.023732 62.2406846,133.288445 C62.2406846,131.553158 60.833438,130.150665 59.102905,130.150665 C57.3771262,130.150665 55.9651254,131.553158 55.9651254,133.288445 C55.9651254,135.023732 57.3771262,136.426225 59.102905,136.426225" id="Fill-91"></path>
                <path d="M77.7000891,136.426225 C79.4258678,136.426225 80.8331144,135.023732 80.8331144,133.288445 C80.8331144,131.553158 79.4258678,130.150665 77.7000891,130.150665 C75.9695561,130.150665 74.5575553,131.553158 74.5575553,133.288445 C74.5575553,135.023732 75.9695561,136.426225 77.7000891,136.426225" id="Fill-93"></path>
                <path d="M96.2905774,136.426225 C98.0211103,136.426225 99.4283569,135.023732 99.4283569,133.288445 C99.4283569,131.553158 98.0211103,130.150665 96.2905774,130.150665 C94.5600444,130.150665 93.1527978,131.553158 93.1527978,133.288445 C93.1527978,135.023732 94.5600444,136.426225 96.2905774,136.426225" id="Fill-95"></path>
                <path d="M3.32461557,155.021748 C5.04908792,155.021748 6.46001985,153.614502 6.46001985,151.883969 C6.46001985,150.148682 5.04908792,148.746189 3.32461557,148.746189 C1.59539261,148.746189 0.18446069,150.148682 0.18446069,151.883969 C0.18446069,153.614502 1.59539261,155.021748 3.32461557,155.021748" id="Fill-97"></path>
                <path d="M21.9130098,155.021748 C23.648297,155.021748 25.0555436,153.614502 25.0555436,151.883969 C25.0555436,150.148682 23.648297,148.746189 21.9130098,148.746189 C20.1872311,148.746189 18.7799845,150.148682 18.7799845,151.883969 C18.7799845,153.614502 20.1872311,155.021748 21.9130098,155.021748" id="Fill-99"></path>
                <path d="M40.5101939,155.021748 C42.2407269,155.021748 43.6479735,153.614502 43.6479735,151.883969 C43.6479735,150.148682 42.2407269,148.746189 40.5101939,148.746189 C38.7796609,148.746189 37.3724143,150.148682 37.3724143,151.883969 C37.3724143,153.614502 38.7796609,155.021748 40.5101939,155.021748" id="Fill-101"></path>
                <path d="M59.102905,155.021748 C60.833438,155.021748 62.2406846,153.614502 62.2406846,151.883969 C62.2406846,150.148682 60.833438,148.746189 59.102905,148.746189 C57.3771262,148.746189 55.9651254,150.148682 55.9651254,151.883969 C55.9651254,153.614502 57.3771262,155.021748 59.102905,155.021748" id="Fill-103"></path>
                <path d="M77.7000891,155.021748 C79.4258678,155.021748 80.8331144,153.614502 80.8331144,151.883969 C80.8331144,150.148682 79.4258678,148.746189 77.7000891,148.746189 C75.9695561,148.746189 74.5575553,150.148682 74.5575553,151.883969 C74.5575553,153.614502 75.9695561,155.021748 77.7000891,155.021748" id="Fill-105"></path>
                <path d="M96.2905774,155.021748 C98.0211103,155.021748 99.4283569,153.614502 99.4283569,151.883969 C99.4283569,150.148682 98.0211103,148.746189 96.2905774,148.746189 C94.5600444,148.746189 93.1527978,150.148682 93.1527978,151.883969 C93.1527978,153.614502 94.5600444,155.021748 96.2905774,155.021748" id="Fill-107"></path>
                <path d="M3.32461557,173.611647 C5.04908792,173.611647 6.46001985,172.209154 6.46001985,170.473867 C6.46001985,168.748088 5.04908792,167.336088 3.32461557,167.336088 C1.59539261,167.336088 0.18446069,168.748088 0.18446069,170.473867 C0.18446069,172.209154 1.59539261,173.611647 3.32461557,173.611647" id="Fill-109"></path>
                <path d="M21.9130098,173.611647 C23.648297,173.611647 25.0555436,172.209154 25.0555436,170.473867 C25.0555436,168.748088 23.648297,167.336088 21.9130098,167.336088 C20.1872311,167.336088 18.7799845,168.748088 18.7799845,170.473867 C18.7799845,172.209154 20.1872311,173.611647 21.9130098,173.611647" id="Fill-111"></path>
                <path d="M40.5101939,173.611647 C42.2407269,173.611647 43.6479735,172.209154 43.6479735,170.473867 C43.6479735,168.748088 42.2407269,167.336088 40.5101939,167.336088 C38.7796609,167.336088 37.3724143,168.748088 37.3724143,170.473867 C37.3724143,172.209154 38.7796609,173.611647 40.5101939,173.611647" id="Fill-113"></path>
                <path d="M59.102905,173.611647 C60.833438,173.611647 62.2406846,172.209154 62.2406846,170.473867 C62.2406846,168.748088 60.833438,167.336088 59.102905,167.336088 C57.3771262,167.336088 55.9651254,168.748088 55.9651254,170.473867 C55.9651254,172.209154 57.3771262,173.611647 59.102905,173.611647" id="Fill-115"></path>
                <path d="M77.7000891,173.611647 C79.4258678,173.611647 80.8331144,172.209154 80.8331144,170.473867 C80.8331144,168.748088 79.4258678,167.336088 77.7000891,167.336088 C75.9695561,167.336088 74.5575553,168.748088 74.5575553,170.473867 C74.5575553,172.209154 75.9695561,173.611647 77.7000891,173.611647" id="Fill-117"></path>
                <path d="M96.2905774,173.611647 C98.0211103,173.611647 99.4283569,172.209154 99.4283569,170.473867 C99.4283569,168.748088 98.0211103,167.336088 96.2905774,167.336088 C94.5600444,167.336088 93.1527978,168.748088 93.1527978,170.473867 C93.1527978,172.209154 94.5600444,173.611647 96.2905774,173.611647" id="Fill-119"></path>
                <path d="M3.32461557,192.206889 C5.04908792,192.206889 6.46001985,190.804397 6.46001985,189.06911 C6.46001985,187.333823 5.04908792,185.93133 3.32461557,185.93133 C1.59539261,185.93133 0.18446069,187.333823 0.18446069,189.06911 C0.18446069,190.804397 1.59539261,192.206889 3.32461557,192.206889" id="Fill-121"></path>
                <path d="M21.9130098,192.206889 C23.648297,192.206889 25.0555436,190.804397 25.0555436,189.06911 C25.0555436,187.333823 23.648297,185.93133 21.9130098,185.93133 C20.1872311,185.93133 18.7799845,187.333823 18.7799845,189.06911 C18.7799845,190.804397 20.1872311,192.206889 21.9130098,192.206889" id="Fill-123"></path>
                <path d="M40.5101939,192.206889 C42.2407269,192.206889 43.6479735,190.804397 43.6479735,189.06911 C43.6479735,187.333823 42.2407269,185.93133 40.5101939,185.93133 C38.7796609,185.93133 37.3724143,187.333823 37.3724143,189.06911 C37.3724143,190.804397 38.7796609,192.206889 40.5101939,192.206889" id="Fill-125"></path>
                <path d="M59.102905,192.206889 C60.833438,192.206889 62.2406846,190.804397 62.2406846,189.06911 C62.2406846,187.333823 60.833438,185.93133 59.102905,185.93133 C57.3771262,185.93133 55.9651254,187.333823 55.9651254,189.06911 C55.9651254,190.804397 57.3771262,192.206889 59.102905,192.206889" id="Fill-127"></path>
                <path d="M77.7000891,192.206889 C79.4258678,192.206889 80.8331144,190.804397 80.8331144,189.06911 C80.8331144,187.333823 79.4258678,185.93133 77.7000891,185.93133 C75.9695561,185.93133 74.5575553,187.333823 74.5575553,189.06911 C74.5575553,190.804397 75.9695561,192.206889 77.7000891,192.206889" id="Fill-129"></path>
                <path d="M96.2905774,192.206889 C98.0211103,192.206889 99.4283569,190.804397 99.4283569,189.06911 C99.4283569,187.333823 98.0211103,185.93133 96.2905774,185.93133 C94.5600444,185.93133 93.1527978,187.333823 93.1527978,189.06911 C93.1527978,190.804397 94.5600444,192.206889 96.2905774,192.206889" id="Fill-131"></path>
                <path d="M3.32461557,210.802132 C5.04908792,210.802132 6.46001985,209.393818 6.46001985,207.666731 C6.46001985,205.930128 5.04908792,204.526573 3.32461557,204.526573 C1.59539261,204.526573 0.18446069,205.930128 0.18446069,207.666731 C0.18446069,209.393818 1.59539261,210.802132 3.32461557,210.802132" id="Fill-133"></path>
                <path d="M21.9130098,210.802132 C23.648297,210.802132 25.0555436,209.393818 25.0555436,207.666731 C25.0555436,205.930128 23.648297,204.526573 21.9130098,204.526573 C20.1872311,204.526573 18.7799845,205.930128 18.7799845,207.666731 C18.7799845,209.393818 20.1872311,210.802132 21.9130098,210.802132" id="Fill-135"></path>
                <path d="M40.5101939,210.802132 C42.2407269,210.802132 43.6479735,209.393818 43.6479735,207.666731 C43.6479735,205.930128 42.2407269,204.526573 40.5101939,204.526573 C38.7796609,204.526573 37.3724143,205.930128 37.3724143,207.666731 C37.3724143,209.393818 38.7796609,210.802132 40.5101939,210.802132" id="Fill-137"></path>
                <path d="M59.102905,210.802132 C60.833438,210.802132 62.2406846,209.393818 62.2406846,207.666731 C62.2406846,205.930128 60.833438,204.526573 59.102905,204.526573 C57.3771262,204.526573 55.9651254,205.930128 55.9651254,207.666731 C55.9651254,209.393818 57.3771262,210.802132 59.102905,210.802132" id="Fill-139"></path>
                <path d="M77.7000891,210.802132 C79.4258678,210.802132 80.8331144,209.393818 80.8331144,207.666731 C80.8331144,205.930128 79.4258678,204.526573 77.7000891,204.526573 C75.9695561,204.526573 74.5575553,205.930128 74.5575553,207.666731 C74.5575553,209.393818 75.9695561,210.802132 77.7000891,210.802132" id="Fill-141"></path>
                <path d="M96.2905774,210.802132 C98.0211103,210.802132 99.4283569,209.393818 99.4283569,207.666731 C99.4283569,205.930128 98.0211103,204.526573 96.2905774,204.526573 C94.5600444,204.526573 93.1527978,205.930128 93.1527978,207.666731 C93.1527978,209.393818 94.5600444,210.802132 96.2905774,210.802132" id="Fill-143"></path>
                <path d="M3.32461557,229.39203 C5.04908792,229.39203 6.46001985,227.989538 6.46001985,226.254251 C6.46001985,224.523718 5.04908792,223.116471 3.32461557,223.116471 C1.59539261,223.116471 0.18446069,224.523718 0.18446069,226.254251 C0.18446069,227.989538 1.59539261,229.39203 3.32461557,229.39203" id="Fill-145"></path>
                <path d="M21.9130098,229.39203 C23.648297,229.39203 25.0555436,227.989538 25.0555436,226.254251 C25.0555436,224.523718 23.648297,223.116471 21.9130098,223.116471 C20.1872311,223.116471 18.7799845,224.523718 18.7799845,226.254251 C18.7799845,227.989538 20.1872311,229.39203 21.9130098,229.39203" id="Fill-147"></path>
                <path d="M40.5101939,229.39203 C42.2407269,229.39203 43.6479735,227.989538 43.6479735,226.254251 C43.6479735,224.523718 42.2407269,223.116471 40.5101939,223.116471 C38.7796609,223.116471 37.3724143,224.523718 37.3724143,226.254251 C37.3724143,227.989538 38.7796609,229.39203 40.5101939,229.39203" id="Fill-149"></path>
                <path d="M59.102905,229.39203 C60.833438,229.39203 62.2406846,227.989538 62.2406846,226.254251 C62.2406846,224.523718 60.833438,223.116471 59.102905,223.116471 C57.3771262,223.116471 55.9651254,224.523718 55.9651254,226.254251 C55.9651254,227.989538 57.3771262,229.39203 59.102905,229.39203" id="Fill-151"></path>
                <path d="M77.7000891,229.39203 C79.4258678,229.39203 80.8331144,227.989538 80.8331144,226.254251 C80.8331144,224.523718 79.4258678,223.116471 77.7000891,223.116471 C75.9695561,223.116471 74.5575553,224.523718 74.5575553,226.254251 C74.5575553,227.989538 75.9695561,229.39203 77.7000891,229.39203" id="Fill-153"></path>
                <path d="M96.2905774,229.39203 C98.0211103,229.39203 99.4283569,227.989538 99.4283569,226.254251 C99.4283569,224.523718 98.0211103,223.116471 96.2905774,223.116471 C94.5600444,223.116471 93.1527978,224.523718 93.1527978,226.254251 C93.1527978,227.989538 94.5600444,229.39203 96.2905774,229.39203" id="Fill-155"></path>
            </g>
        </g>
    </g>
</svg>